<?xml version="1.0" encoding="UTF-8" standalone="no"?>
<!-- Created with Inkscape (http://www.inkscape.org/) -->

<svg
   xmlns:dc="http://purl.org/dc/elements/1.1/"
   xmlns:cc="http://creativecommons.org/ns#"
   xmlns:rdf="http://www.w3.org/1999/02/22-rdf-syntax-ns#"
   xmlns:svg="http://www.w3.org/2000/svg"
   xmlns="http://www.w3.org/2000/svg"
   xmlns:xlink="http://www.w3.org/1999/xlink"
   xmlns:sodipodi="http://sodipodi.sourceforge.net/DTD/sodipodi-0.dtd"
   xmlns:inkscape="http://www.inkscape.org/namespaces/inkscape"
   width="57"
   height="57"
   id="svg2"
   version="1.1"
   inkscape:version="0.48.1 r9760"
   sodipodi:docname="GlossyParts.svg"
   inkscape:export-filename="/home/chm/Projekte/Art/exif-renamer.png"
   inkscape:export-xdpi="404.20999"
   inkscape:export-ydpi="404.20999">
  <defs
     id="defs4">
    <linearGradient
       id="linearGradient4078">
      <stop
         style="stop-color:#ffffff;stop-opacity:0;"
         offset="0"
         id="stop4080" />
      <stop
         style="stop-color:#00ffb1;stop-opacity:1;"
         offset="1"
         id="stop4082" />
    </linearGradient>
    <linearGradient
       id="linearGradient3807">
      <stop
         style="stop-color:#ffffff;stop-opacity:1;"
         offset="0"
         id="stop3809" />
      <stop
         style="stop-color:#ffffff;stop-opacity:0;"
         offset="1"
         id="stop3811" />
    </linearGradient>
    <linearGradient
       id="linearGradient3795">
      <stop
         style="stop-color:#ffffff;stop-opacity:0.33725491;"
         offset="0"
         id="stop3797" />
      <stop
         id="stop3805"
         offset="0.62"
         style="stop-color:#ffffff;stop-opacity:0.29411766;" />
      <stop
         id="stop3803"
         offset="0.63"
         style="stop-color:#000000;stop-opacity:0.23529412;" />
      <stop
         style="stop-color:#ffffff;stop-opacity:0;"
         offset="1"
         id="stop3799" />
    </linearGradient>
    <radialGradient
       inkscape:collect="always"
       xlink:href="#linearGradient3795"
       id="radialGradient3801"
       cx="-35.95475"
       cy="961.28223"
       fx="-35.95475"
       fy="961.28223"
       r="28.5"
       gradientUnits="userSpaceOnUse"
       gradientTransform="matrix(-2.9169389,-4.2666035e-7,2.2104766e-7,-1.5112314,-76.378049,2448.4654)" />
    <linearGradient
       inkscape:collect="always"
       xlink:href="#linearGradient3807"
       id="linearGradient3813"
       x1="-7.4547501"
       y1="960.80023"
       x2="-7.4547501"
       y2="977.48724"
       gradientUnits="userSpaceOnUse"
       gradientTransform="matrix(0.98275861,0,0,0.98275861,63.834839,51.037241)" />
    <filter
       id="filter3886"
       inkscape:label="Drop shadow"
       inkscape:menu="ABCs"
       inkscape:menu-tooltip="Removes or decreases glows and jaggeries around objects edges after applying some filters"
       height="1.5"
       width="1.5"
       y="-.25"
       x="-.25"
       color-interpolation-filters="sRGB">
      <feGaussianBlur
         id="feGaussianBlur3888"
         result="result6"
         stdDeviation="0.4" />
      <feComposite
         id="feComposite3890"
         in2="result6"
         operator="in"
         in="SourceGraphic"
         result="result7" />
      <feComposite
         id="feComposite3892"
         in2="result7"
         operator="in"
         result="fbSourceGraphic"
         in="result7" />
      <feColorMatrix
         result="fbSourceGraphicAlpha"
         in="fbSourceGraphic"
         values="0 0 0 -1 0 0 0 0 -1 0 0 0 0 -1 0 0 0 0 1 0"
         id="feColorMatrix3908" />
      <feGaussianBlur
         id="feGaussianBlur3910"
         in="fbSourceGraphicAlpha"
         stdDeviation="2"
         result="blur" />
      <feColorMatrix
         id="feColorMatrix3912"
         result="bluralpha"
         type="matrix"
         values="1 0 0 0 0 0 1 0 0 0 0 0 1 0 0 0 0 0 0.35 0 " />
      <feOffset
         id="feOffset3914"
         in="bluralpha"
         dx="1.3"
         dy="1.3"
         result="offsetBlur" />
      <feMerge
         id="feMerge3916"
         result="fbSourceGraphic">
        <feMergeNode
           id="feMergeNode3918"
           in="offsetBlur" />
        <feMergeNode
           id="feMergeNode3920"
           in="fbSourceGraphic" />
      </feMerge>
      <feColorMatrix
         result="fbSourceGraphicAlpha"
         in="fbSourceGraphic"
         values="0 0 0 -1 0 0 0 0 -1 0 0 0 0 -1 0 0 0 0 1 0"
         id="feColorMatrix3922" />
      <feGaussianBlur
         id="feGaussianBlur3924"
         in="fbSourceGraphicAlpha"
         stdDeviation="2"
         result="blur" />
      <feColorMatrix
         id="feColorMatrix3926"
         result="bluralpha"
         type="matrix"
         values="1 0 0 0 0 0 1 0 0 0 0 0 1 0 0 0 0 0 0.35 0 " />
      <feOffset
         id="feOffset3928"
         in="bluralpha"
         dx="0.3"
         dy="0.3"
         result="offsetBlur" />
      <feMerge
         id="feMerge3930"
         result="fbSourceGraphic">
        <feMergeNode
           id="feMergeNode3932"
           in="offsetBlur" />
        <feMergeNode
           id="feMergeNode3934"
           in="fbSourceGraphic" />
      </feMerge>
      <feColorMatrix
         result="fbSourceGraphicAlpha"
         in="fbSourceGraphic"
         values="0 0 0 -1 0 0 0 0 -1 0 0 0 0 -1 0 0 0 0 1 0"
         id="feColorMatrix3936" />
      <feGaussianBlur
         id="feGaussianBlur3938"
         in="fbSourceGraphicAlpha"
         stdDeviation="2"
         result="blur" />
      <feColorMatrix
         id="feColorMatrix3940"
         result="bluralpha"
         type="matrix"
         values="1 0 0 0 0 0 1 0 0 0 0 0 1 0 0 0 0 0 0.35 0 " />
      <feOffset
         id="feOffset3942"
         in="bluralpha"
         dx="1.3"
         dy="1.3"
         result="offsetBlur" />
      <feMerge
         id="feMerge3944">
        <feMergeNode
           id="feMergeNode3946"
           in="offsetBlur" />
        <feMergeNode
           id="feMergeNode3948"
           in="fbSourceGraphic" />
      </feMerge>
    </filter>
    <filter
       id="filter4006"
       inkscape:label="Drop shadow"
       inkscape:menu="Bevels"
       inkscape:menu-tooltip="Ridged border with inner bevel"
       color-interpolation-filters="sRGB"
       width="1.5"
       height="1.5"
       x="-.25"
       y="-.25">
      <feMorphology
         id="feMorphology4008"
         radius="4.3"
         in="SourceAlpha"
         result="result91" />
      <feComposite
         id="feComposite4010"
         in2="result91"
         operator="out"
         in="SourceGraphic" />
      <feGaussianBlur
         id="feGaussianBlur4012"
         result="result0"
         stdDeviation="1.2" />
      <feDiffuseLighting
         id="feDiffuseLighting4014"
         diffuseConstant="1"
         result="result92">
        <feDistantLight
           id="feDistantLight4016"
           elevation="66"
           azimuth="225" />
      </feDiffuseLighting>
      <feBlend
         id="feBlend4018"
         in2="SourceGraphic"
         mode="multiply"
         result="result93" />
      <feComposite
         id="feComposite4020"
         in2="SourceAlpha"
         operator="in"
         result="fbSourceGraphic" />
      <feColorMatrix
         result="fbSourceGraphicAlpha"
         in="fbSourceGraphic"
         values="0 0 0 -1 0 0 0 0 -1 0 0 0 0 -1 0 0 0 0 1 0"
         id="feColorMatrix4022" />
      <feGaussianBlur
         id="feGaussianBlur4024"
         in="fbSourceGraphicAlpha"
         stdDeviation="2"
         result="blur" />
      <feColorMatrix
         id="feColorMatrix4026"
         result="bluralpha"
         type="matrix"
         values="1 0 0 0 0 0 1 0 0 0 0 0 1 0 0 0 0 0 0.35 0 " />
      <feOffset
         id="feOffset4028"
         in="bluralpha"
         dx="3.3"
         dy="3.3"
         result="offsetBlur" />
      <feMerge
         id="feMerge4030">
        <feMergeNode
           id="feMergeNode4032"
           in="offsetBlur" />
        <feMergeNode
           id="feMergeNode4034"
           in="fbSourceGraphic" />
      </feMerge>
    </filter>
    <filter
       id="filter4040"
       inkscape:label="Drop shadow"
       inkscape:menu="Bevels"
       inkscape:menu-tooltip="Ridged border with inner bevel"
       color-interpolation-filters="sRGB"
       width="1.5"
       height="1.5"
       x="-.25"
       y="-.25">
      <feMorphology
         id="feMorphology4042"
         radius="4.3"
         in="SourceAlpha"
         result="result91" />
      <feComposite
         id="feComposite4044"
         in2="result91"
         operator="out"
         in="SourceGraphic" />
      <feGaussianBlur
         id="feGaussianBlur4046"
         result="result0"
         stdDeviation="1.2" />
      <feDiffuseLighting
         id="feDiffuseLighting4048"
         diffuseConstant="1"
         result="result92">
        <feDistantLight
           id="feDistantLight4050"
           elevation="66"
           azimuth="225" />
      </feDiffuseLighting>
      <feBlend
         id="feBlend4052"
         in2="SourceGraphic"
         mode="multiply"
         result="result93" />
      <feComposite
         id="feComposite4054"
         in2="SourceAlpha"
         operator="in"
         result="fbSourceGraphic" />
      <feColorMatrix
         result="fbSourceGraphicAlpha"
         in="fbSourceGraphic"
         values="0 0 0 -1 0 0 0 0 -1 0 0 0 0 -1 0 0 0 0 1 0"
         id="feColorMatrix4056" />
      <feGaussianBlur
         id="feGaussianBlur4058"
         in="fbSourceGraphicAlpha"
         stdDeviation="2"
         result="blur" />
      <feColorMatrix
         id="feColorMatrix4060"
         result="bluralpha"
         type="matrix"
         values="1 0 0 0 0 0 1 0 0 0 0 0 1 0 0 0 0 0 0.35 0 " />
      <feOffset
         id="feOffset4062"
         in="bluralpha"
         dx="2.3"
         dy="2.3"
         result="offsetBlur" />
      <feMerge
         id="feMerge4064">
        <feMergeNode
           id="feMergeNode4066"
           in="offsetBlur" />
        <feMergeNode
           id="feMergeNode4068"
           in="fbSourceGraphic" />
      </feMerge>
    </filter>
    <radialGradient
       inkscape:collect="always"
       xlink:href="#linearGradient4078"
       id="radialGradient4084"
       cx="-88.141769"
       cy="68.014221"
       fx="-88.141769"
       fy="68.014221"
       r="19.563971"
       gradientTransform="matrix(1,0,0,0.9981258,0,0.12747235)"
       gradientUnits="userSpaceOnUse" />
    <filter
       id="filter4096"
       inkscape:label="Soft focus lens"
       inkscape:menu="Image effects"
       inkscape:menu-tooltip="Glowing image content without blurring it"
       height="1"
       y="0"
       width="1"
       x="0"
       color-interpolation-filters="sRGB">
      <feGaussianBlur
         id="feGaussianBlur4098"
         stdDeviation="0.20000000000000001 0.20000000000000001"
         result="result3" />
      <feComposite
         id="feComposite4100"
         in2="result3"
         operator="arithmetic"
         in="result3"
         k1="0.5"
         k3="0.5"
         result="result1" />
      <feBlend
         id="feBlend4102"
         in2="result1"
         result="result5"
         mode="screen"
         in="SourceGraphic" />
      <feBlend
         id="feBlend4104"
         in2="result5"
         mode="darken"
         in="result5"
         result="result6" />
      <feComposite
         id="feComposite4106"
         in2="SourceGraphic"
         operator="in" />
      <feGaussianBlur
         stdDeviation="0.20000000000000001"
         id="feGaussianBlur4112" />
    </filter>
  </defs>
  <sodipodi:namedview
     id="base"
     pagecolor="#ffffff"
     bordercolor="#666666"
     borderopacity="1.0"
     inkscape:pageopacity="0.0"
     inkscape:pageshadow="2"
     inkscape:zoom="2.2807018"
     inkscape:cx="7.6441367"
     inkscape:cy="-17.469236"
     inkscape:document-units="px"
     inkscape:current-layer="layer1"
     showgrid="false"
     inkscape:window-width="1280"
     inkscape:window-height="750"
     inkscape:window-x="0"
     inkscape:window-y="26"
     inkscape:window-maximized="1"
     showguides="true"
     inkscape:guide-bbox="true" />
  <metadata
     id="metadata7">
    <rdf:RDF>
      <cc:Work
         rdf:about="">
        <dc:format>image/svg+xml</dc:format>
        <dc:type
           rdf:resource="http://purl.org/dc/dcmitype/StillImage" />
        <dc:title></dc:title>
      </cc:Work>
    </rdf:RDF>
  </metadata>
  <g
     inkscape:label="Ebene 1"
     inkscape:groupmode="layer"
     id="layer1"
     transform="translate(0,-995.3622)">
    <rect
       style="stroke:none;fill-opacity:1;fill:#22af87"
       id="rect3757"
       width="57"
       height="57"
       x="0"
       y="995.36218"
       rx="10"
       ry="10" />
    <rect
       style="fill:url(#radialGradient3801);fill-opacity:1;stroke:url(#linearGradient3813);stroke-width:0.98275858;stroke-opacity:1"
       id="rect3757-3"
       width="56.017242"
       height="56.017242"
       x="0.49137929"
       y="995.65356"
       rx="9.8275852"
       ry="9.8275852"
       inkscape:transform-center-x="10.060733"
       inkscape:transform-center-y="-9.2360823" />
    <rect
       style="fill:#ffffff;fill-opacity:1;stroke:none"
       id="rect3956"
       width="0.82465023"
       height="19.296814"
       x="87.083061"
       y="1.7484362"
       transform="translate(0,995.3622)"
       rx="9.8275852"
       ry="9.8275852" />
    <text
       xml:space="preserve"
       style="font-size:64px;font-style:normal;font-variant:normal;font-weight:bold;font-stretch:normal;text-align:center;line-height:125%;letter-spacing:0px;word-spacing:0px;writing-mode:lr-tb;text-anchor:middle;fill:#ffffff;fill-opacity:1;stroke:none;filter:url(#filter4040);font-family:ITC Garamond Std;-inkscape-font-specification:ITC Garamond Std Bold"
       x="28.004"
       y="1038.6143"
       id="text4036"
       sodipodi:linespacing="125%"><tspan
         sodipodi:role="line"
         id="tspan4038"
         x="28.004"
         y="1038.6143">r</tspan></text>
    <path
       sodipodi:type="star"
       style="fill:#ffffff;fill-opacity:1;stroke:none"
       id="path4070"
       sodipodi:sides="5"
       sodipodi:cx="-77.607692"
       sodipodi:cy="73.661538"
       sodipodi:r1="36.605631"
       sodipodi:r2="18.302815"
       sodipodi:arg1="0.75151283"
       sodipodi:arg2="1.3798314"
       inkscape:flatsided="false"
       inkscape:rounded="0"
       inkscape:randomized="0"
       d="m -50.861533,98.653846 -23.272165,-7.022211 -18.978073,15.190055 -0.512974,-24.303126 -20.311145,-13.355234 22.955125,-7.997947 6.425092,-23.444044 14.700025,19.360123 24.282074,-1.133982 -13.870014,19.963161 z"
       transform="translate(0,995.3622)"
       inkscape:transform-center-x="2.1470449"
       inkscape:transform-center-y="-1.3900224" />
    <path
       sodipodi:type="star"
       style="fill:#ffffff;fill-opacity:1;stroke:none"
       id="path4072"
       sodipodi:sides="5"
       sodipodi:cx="-81.992308"
       sodipodi:cy="70.153846"
       sodipodi:r1="55.024739"
       sodipodi:r2="27.51237"
       sodipodi:arg1="0.85871285"
       sodipodi:arg2="1.4870314"
       inkscape:flatsided="false"
       inkscape:rounded="0"
       inkscape:randomized="0"
       d="m -46.038464,111.80769 -33.651968,-14.237939 -30.806688,19.649979 3.14206,-36.404687 -28.20804,-23.226725 35.593868,-8.261394 13.373166,-34.004886 18.856163,31.298866 36.473104,2.21055 -23.940117,27.605158 z"
       transform="translate(0,995.3622)"
       inkscape:transform-center-x="1.4226389"
       inkscape:transform-center-y="-3.882962" />
    <path
       sodipodi:type="star"
       style="opacity:0.34999999999999998;fill:url(#radialGradient4084);fill-opacity:1.0;stroke:none;filter:url(#filter4096)"
       id="path4076"
       sodipodi:sides="350"
       sodipodi:cx="-88.130768"
       sodipodi:cy="67.96154"
       sodipodi:r1="5.7891874"
       sodipodi:r2="19.297291"
       sodipodi:arg1="0"
       sodipodi:arg2="0.008975979"
       inkscape:flatsided="false"
       inkscape:rounded="0"
       inkscape:randomized="0.015"
       d="m -82.456912,68.013313 13.363645,0.137285 -13.395918,-0.04014 13.781894,0.121325 -13.909081,-0.325109 14.038572,1.113045 -13.620501,-0.991097 13.557121,1.383358 -13.78225,-1.217006 13.754221,1.094787 -13.464115,-0.834054 12.951383,1.408747 -13.075659,-1.172359 13.208434,1.563659 -13.594596,-1.590098 13.472107,2.144599 -13.375415,-1.800968 13.377197,2.061394 -13.344778,-2.316546 13.383163,2.74088 -13.445627,-2.654206 13.290013,2.453864 -13.125491,-2.372103 13.32482,3.244748 -13.485182,-2.916671 13.172263,2.898141 -12.817341,-2.990765 12.598765,3.604163 -12.658192,-3.206578 12.794033,3.105869 -13.147094,-3.224494 12.770756,3.904939 -12.92682,-3.681007 13.192627,4.211031 -13.064012,-4.166767 12.880714,4.325401 -12.617474,-4.280758 12.756902,4.501373 -12.78789,-4.121645 12.155834,4.331452 -12.537486,-4.435823 12.838934,4.896418 -12.998273,-5.071982 12.527736,5.599751 -12.490591,-5.354758 12.437128,5.445582 -12.401129,-5.279497 12.123475,5.748998 -11.896334,-5.342486 11.973434,5.483443 -12.096902,-5.625287 12.241709,5.953343 -12.429873,-6.101504 12.152412,6.386689 -12.404083,-5.990458 12.194427,6.462543 -12.19247,-6.385327 12.077148,6.279928 -11.846832,-6.236369 11.799422,6.896592 -12.212061,-6.809458 12.003202,7.031936 -11.901547,-7.015367 11.500691,7.225828 -11.462471,-7.308032 11.447395,7.921176 -11.411327,-7.411385 11.203779,7.383394 -11.293518,-7.442747 10.956564,7.872772 -11.047832,-7.933193 11.065637,7.919497 -11.252666,-7.867114 10.791693,8.356685 -11.010833,-8.007804 10.707138,8.325262 -10.380029,-8.180637 10.134669,8.348582 -10.482177,-8.670151 10.404364,8.937091 -10.173804,-8.759133 9.616896,8.90006 -10.029077,-8.678826 9.890349,8.895834 -9.787431,-8.75955 9.806351,9.447039 -9.736021,-9.707441 9.276043,9.497447 -9.238854,-9.497451 9.228513,9.758703 -9.60398,-9.169368 9.4332,9.442279 -9.491683,-9.874051 9.129345,10.534355 -9.25152,-10.408177 8.791938,10.634777 -8.946581,-10.326483 8.586846,10.312324 -8.544496,-10.227223 8.342945,10.490702 -8.562438,-10.333059 8.23267,10.346126 -7.936835,-10.20954 7.770204,10.694262 -8.085653,-10.954563 8.045654,11.335394 -8.164022,-11.368254 7.740207,11.251787 -7.541376,-11.083987 7.276187,11.244818 -7.49035,-11.116822 7.357432,11.353637 -7.802059,-11.400832 7.603287,11.871245 -7.532421,-11.939611 6.913628,12.044118 -6.645545,-11.885136 6.159315,12.129549 -6.700529,-12.14581 6.697027,12.342349 -6.46145,-12.081283 6.391893,11.946361 -6.44964,-11.801979 5.673373,11.944877 -6.081495,-11.884923 5.757052,12.355601 -5.878934,-12.42645 5.606903,12.279275 -5.499585,-12.38457 5.623212,12.6286 -5.809099,-12.271718 5.227016,12.264467 -5.153037,-12.367883 5.085006,12.59371 -5.334188,-12.402159 4.591265,12.593815 -4.549897,-12.581291 4.321225,12.362924 -4.602973,-12.762578 4.539164,12.822599 -4.561499,-12.446571 4.20441,12.679994 -4.257954,-12.651138 3.835926,13.067436 -4.151255,-12.952297 3.664992,13.022531 -3.782039,-13.145051 3.461651,12.900532 -3.230301,-12.733682 3.195394,13.255445 -3.282206,-13.434875 2.895699,13.497303 -3.045959,-13.233342 2.304398,12.934578 -2.71509,-13.063272 2.582373,13.155832 -2.732806,-13.101922 2.187003,13.472612 -1.790062,-13.23703 1.562081,12.890251 -2.005574,-13.083264 1.974259,13.231776 -2.156809,-13.256289 1.864024,13.216206 -1.728516,-13.104494 1.086091,13.283885 -1.300288,-13.256799 0.943738,13.573372 -1.158094,-13.612247 1.062245,13.193543 -0.927255,-13.536113 0.220887,13.617226 -0.4667,-13.0897 0.07774,13.51108 -0.293,-13.990161 0.196304,13.492739 -0.09272,-13.270777 -0.295886,13.411242 0.08176,-13.599716 -0.20909,13.712009 0.02562,-13.749253 -0.382803,13.890102 0.455282,-13.682527 -1.130478,13.166283 0.915954,-13.216044 -1.303099,13.387713 1.119926,-13.236228 -1.184121,13.235222 1.288195,-13.214722 -1.580608,13.342328 1.397799,-13.450954 -2.00779,13.436325 1.857007,-13.421883 -2.086049,13.188259 2.190819,-13.557909 -2.705414,13.499301 2.585818,-13.463648 -2.749856,13.547805 2.568172,-13.597682 -3.018139,13.227963 2.639206,-13.13608 -2.706602,13.162289 3.167015,-12.937798 -3.812552,13.038158 3.465654,-12.9391 -3.724238,12.872464 3.606614,-12.972091 -4.12364,12.767048 4.069533,-12.927061 -3.943515,12.865865 3.659921,-12.672389 -4.336271,12.705988 4.283248,-13.125963 -4.607591,12.709541 4.325154,-12.711904 -4.553844,12.70664 4.595659,-12.584911 -4.759812,12.659535 4.541057,-13.030399 -5.157059,12.625629 5.231429,-12.432464 -5.553258,12.217197 5.597124,-12.485257 -5.965324,12.210636 5.84235,-12.105526 -6.23257,12.400311 6.371593,-12.641359 -6.665553,12.12562 6.575965,-11.963056 -6.454667,12.175075 6.078832,-12.141442 -6.758275,11.919778 6.73222,-12.047333 -6.705555,11.939616 6.7122,-11.879779 -7.198412,11.32347 6.918898,-11.392517 -7.245912,11.331585 7.316851,-11.575857 -7.259934,11.282717 7.044781,-11.012819 -7.725707,10.820694 7.892274,-11.037697 -7.897227,11.321531 7.454702,-11.356563 -7.591937,10.849051 7.50474,-10.993278 -7.831227,11.012794 8.063414,-11.020442 -8.522606,10.713549 8.23941,-10.895381 -8.56996,10.302283 8.610963,-10.28154 -9.099303,10.418779 8.880841,-10.325495 -8.922091,10.250648 8.767262,-10.203283 -9.259152,9.664229 9.136753,-10.058171 -9.436653,9.753526 9.638555,-9.944806 -9.840625,10.116746 9.81438,-9.904087 -9.85611,9.286248 9.315255,-9.197608 -9.775475,9.140209 9.814279,-9.6818 -9.535109,9.349599 9.668883,-9.219047 -10.068663,9.134808 10.2038,-9.133709 -10.76123,8.636753 10.412481,-8.993097 -10.199061,8.681097 10.144152,-8.536986 -10.630542,8.413173 10.347039,-8.557983 -10.651499,8.283915 11.010812,-8.410278 -10.893702,8.366858 10.73859,-8.552938 -11.33064,7.89778 11.238832,-7.792854 -10.997852,7.807494 10.678155,-7.74907 -10.885575,7.464794 10.859839,-7.484673 -11.453759,6.871158 11.52263,-7.234176 -11.31455,7.023529 11.416782,-7.262616 -11.656902,6.817434 11.24363,-6.637176 -11.25996,6.645065 11.458434,-6.777445 -12.121674,6.079738 11.80586,-6.33571 -11.49926,6.309404 11.59642,-6.127274 -12.19249,5.663702 12.004811,-6.138592 -12.089771,6.255758 12.513304,-5.935343 -12.436634,5.392741 12.14774,-5.48884 -12.19646,4.930516 12.169297,-5.407756 -12.223267,5.450072 12.292029,-5.204597 -12.763139,4.587451 12.57302,-4.591201 -12.81988,4.620332 13.016365,-5.094137 -12.751855,4.482683 12.721276,-4.373612 -13.160286,4.375887 12.874979,-4.241588 -13.090209,3.682606 13.188006,-4.306716 -12.891776,3.686386 12.734874,-3.642183 -13.110824,3.452392 13.337017,-3.200999 -13.202027,2.900062 13.174163,-3.474734 -13.132973,3.039721 12.876891,-2.680631 -12.902431,2.298814 12.773614,-2.493937 -13.154134,2.066328 13.318973,-2.32499 -13.474323,2.079925 13.410984,-2.434363 -13.373564,2.455436 13.375071,-2.289848 -13.112461,1.850665 12.922349,-2.104732 -13.244049,1.638868 13.404703,-1.345592 -13.334183,1.088545 13.528497,-1.636088 -13.432127,1.104972 13.173612,-1.276884 -13.201492,0.910304 13.524352,-0.453419 -13.620002,0.105105 13.459433,-0.583453 -13.877523,0.685776 13.780651,-0.615688 -13.426941,-0.0446 13.394929,-0.008 -13.394859,-0.404492 13.427141,0.371451 -13.781901,-0.764344 13.87787,0.63682 -13.45964,-1.048944 13.620488,0.926996 -13.525318,-1.066139 13.202737,0.588076 -13.175297,-1.030687 13.43291,1.145765 -13.52972,-1.422836 13.335694,1.434986 -13.406634,-1.8567 13.245682,1.62144 -12.924392,-1.768787 13.114197,1.438317 -13.377197,-2.061393 13.375978,1.940733 -13.413778,-1.800238 13.476847,1.827677 -13.321827,-2.256265 13.1567,2.060392 -12.7771,-2.868937 12.906253,2.852571 -12.870893,-2.675944 13.126694,2.506869 -13.168744,-2.853988 13.196367,2.718102 -13.331617,-3.146299 13.105759,3.264924 -12.730009,-3.995381 12.886082,3.835549 -13.183092,-3.989761 13.085677,4.148604 -12.870587,-4.633038 13.155661,4.4353 -12.716761,-4.705926 12.747144,4.791004 -13.012304,-4.688173 12.815633,4.263638 -12.569373,-4.991441 12.759325,4.805281 -12.288785,-4.75413 12.220432,4.820849 -12.166972,-5.490592 12.193391,5.280003 -12.144551,-5.744924 12.43391,5.961834 -12.511,-6.03869 12.086759,5.868823 -12.002159,-6.215548 12.190332,5.848892 -11.594582,-5.867798 11.496743,6.031815 -11.804183,-6.598415 12.120527,6.272661 -11.457497,-6.43447 11.258381,6.594019 -11.242171,-6.87843 11.655415,6.905408 -11.415355,-7.503698 11.313104,7.437117 -11.521784,-7.285855 11.452346,7.036751 -10.858946,-7.699907 10.885296,7.724531 -10.677746,-7.69654 10.996903,7.222405 -11.238863,-7.65243 11.330736,7.826964 -10.738416,-8.124979 10.89363,7.691276 -11.01158,-8.180847 10.651802,8.410884 -10.347502,-8.614229 10.631126,8.272006 -10.135276,-8.462695 10.190353,8.733325 -10.404373,-9.001193 10.752721,8.759134 -10.195811,-8.90006 10.060283,8.946033 -9.660933,-9.429321 9.536935,9.297111 -9.816475,-9.654219 9.777354,9.60291 -9.317384,-9.457017 9.858528,9.47111 -9.816968,-9.979973 9.842924,9.950887 -9.640944,-10.020691 9.4388,9.560906 -9.13888,-9.597788 9.261056,9.47161 -8.769666,-9.959909 8.924309,10.230534 -8.883459,-10.468566 9.101744,10.181285 -8.613114,-10.509792 8.572567,10.604341 -8.242799,-10.617408 8.525892,10.544922 -8.066821,-10.914604 7.83456,10.863194 -7.508073,-10.716046 7.595223,10.417598 -7.458491,-10.879122 7.900411,11.259825 -7.895858,-11.218477 7.72931,10.868706 -7.048673,-11.308628 7.263873,11.24629 -7.320985,-11.512668 7.250129,11.645135 -6.923171,-11.75057 7.202788,11.839198 -6.716549,-12.01951 6.710053,11.72406 -6.737174,-11.622977 6.762819,11.724562 -6.083729,-11.951363 6.459173,11.44433 -6.580117,-11.853507 6.669947,12.106192 -6.376704,-12.201059 6.23796,11.959269 -5.84774,-11.970131 5.970435,12.170869 -5.602133,-12.632673 5.558006,12.759267 -5.236549,-12.485736 5.16257,12.010233 -4.546829,-12.503268 4.765398,12.67344 -4.601385,-12.800995 4.55943,12.80256 -4.330767,-12.648294 4.613102,12.45494 -4.288666,-12.781241 4.341615,12.622409 -3.665638,-12.539541 3.949194,12.606128 -4.075472,-12.80523 4.129579,12.906359 -3.612098,-13.224203 3.72975,13.460836 -3.47178,-13.171814 3.818744,12.890851 -3.173123,-13.159495 2.712234,13.091315 -2.644605,-13.405934 3.024274,13.702223 -2.574549,-13.404387 2.755823,12.908731 -2.591906,-13.377103 2.71113,13.634903 -2.196536,-13.693882 2.092027,13.509239 -1.86345,-13.112448 2.014521,13.318623 -1.404874,-13.453045 1.587414,13.413457 -1.294638,-13.437475 1.190339,13.592971 -1.126238,-13.72235 1.309226,13.428056 -0.922052,-13.463333 1.137013,13.61632 -0.462255,-13.840636 0.389674,13.495684 -0.03221,-13.481353 0.215606,13.577249 -0.08787,-13.203442 0.302542,13.117693 0.086,-13.134162 -0.189582,13.491119 0.286343,-13.696612 -0.07163,13.292078 0.460183,-13.04172 -0.214296,13.034461 0.920384,-13.270754 -1.055272,13.750701 1.151558,-13.749274 -0.937639,13.684924 1.294162,-13.558971 -1.079779,13.674693 1.722297,-13.723699 -1.857581,13.435991 2.150003,-13.499497 -1.967184,13.672224 1.998843,-13.671684 -1.555639,13.644081 1.784085,-13.460469 -2.181286,13.200261 2.72709,-12.874445 -2.576284,13.105999 2.709122,-13.393262 -2.298021,13.48857 3.039823,-13.117924 -2.890298,13.04471 3.276573,-13.397646 -3.189286,13.420767 3.22411,-13.195328 -3.455526,13.210382 3.776528,-13.18825 -3.659509,13.173764 4.145316,-12.72111 -3.829987,12.664855 4.252275,-12.820854 -4.198694,13.110854 4.556155,-12.881826 -4.533745,12.505686 4.597461,-12.401903 -4.31561,12.997274 4.544311,-12.927909 -4.58554,12.792091 5.328602,-12.930816 -5.079234,12.939957 5.147526,-12.26798 -5.221896,12.074815 5.804351,-12.125828 -5.618203,12.489331 5.494474,-12.575854 -5.601513,12.375301 5.873544,-11.933129 -5.751942,11.907897 6.077102,-11.767971 -5.669221,11.871687 6.445133,-11.817426 -6.386995,12.146444 6.456907,-12.141975 -6.692074,11.906879 6.696032,-11.517866 -6.154967,11.76974 6.641169,-11.85645 -6.909355,11.677887 7.528204,-11.03711 -7.599153,11.217282 7.79812,-11.128176 -7.35354,10.96781 7.486746,-11.151496 -7.272602,11.590275 7.538192,-10.918451 -7.736418,10.983897 8.160736,-11.056232 -8.042321,10.952848 8.08232,-10.921424 -7.766797,11.240784 7.933549,-11.048932 -8.229281,10.587745 8.559831,-9.994646 -8.340794,10.30063 8.542057,-10.372841 -8.584231,10.481736 8.944366,-10.154698 -8.789537,10.107334 9.249621,-9.885499 -9.127222,10.279441 9.489542,-10.019299 -9.430817,9.944298 9.601681,-9.740427 -9.225926,9.546438 9.236443,-9.259908 -9.27392,9.736097 9.73415,-9.614597 -9.804163,9.310063 9.785606,-8.729324 -9.8983,9.173616 10.037456,-9.402015 -9.624884,9.133709 10.182314,-8.636753 -10.412474,9.057197 10.490883,-8.744269 -10.143542,8.651097 10.379452,-8.504541 -10.706682,8.84695 11.010535,-8.686995 -10.790929,8.23444 11.25274,-7.612101 -11.065814,8.1795 11.04773,-7.79155 -10.956527,7.572513 11.294468,-7.587153 -11.204189,7.483297 11.411606,-7.199021 -11.448288,7.263403 11.463885,-7.178794 -11.501538,7.294203 11.90299,-6.866361 -12.004626,7.155459 12.213551,-6.913384 -11.800884,7.197932 11.848415,-6.423796 -12.078089,6.353069 12.193615,-6.545991 -12.196102,6.471583 12.406596,-5.771842 -12.154246,6.1873 12.432024,-5.990009 -12.244354,5.821879 12.09991,-5.341457 -11.975733,5.332754 11.899052,-5.433171 -12.126659,5.484766 12.404201,-4.931023 -12.439456,5.452767 12.493422,-4.916164 -12.530976,4.937896 13.00209,-4.899668 -12.842583,4.686222 12.541731,-4.448146 -12.159893,4.871939 12.7926,-4.573124 -12.761416,4.578167 12.6221,-3.951511 -12.885108,3.970307 13.068545,-3.664444 -13.197542,4.085446 12.932509,-3.840928 -12.775616,3.732625 13.152159,-3.492822 -12.799434,3.820347 12.663853,-3.569422 -12.604183,3.303476 12.823616,-3.134743 -13.178259,3.616272 13.481356,-2.813632 -13.321329,2.697043 13.122922,-2.333536 -13.287156,2.127392 13.443104,-1.832314 -13.38037,2.072639 13.342367,-2.079624 -13.375074,2.289848 13.373684,-1.488014 -13.470069,1.72892 13.592967,-1.67021 -13.206507,1.638634 13.074151,-1.351173 -12.950163,1.650178 13.463332,-1.416683 -13.752536,1.212782 13.781003,-0.860291 -13.556153,1.294036 13.620008,-0.619922 -14.038358,0.519352 13.908728,-0.418568 -13.780638,0.679788 13.395723,-0.28671 z"
       transform="matrix(2.0445747,0,0,2.0799278,208.71244,882.39752)"
       inkscape:transform-center-x="-3.7675971" />
  </g>
</svg>
